<svg width="30" height="30" viewBox="0 0 30 30" fill="none" xmlns="http://www.w3.org/2000/svg">
<path d="M15 30C12.9 30 10.9375 29.6063 9.1125 28.8188C7.2875 28.0313 5.7 26.9625 4.35 25.6125C3 24.2625 1.9375 22.6688 1.1625 20.8313C0.3875 18.9938 0 17.025 0 14.925C0 12.825 0.3875 10.8688 1.1625 9.05625C1.9375 7.24375 3 5.6625 4.35 4.3125C5.7 2.9625 7.2875 1.90625 9.1125 1.14375C10.9375 0.38125 12.9 0 15 0C17.1 0 19.0625 0.38125 20.8875 1.14375C22.7125 1.90625 24.3 2.9625 25.65 4.3125C27 5.6625 28.0625 7.24375 28.8375 9.05625C29.6125 10.8688 30 12.825 30 14.925C30 17.025 29.6125 18.9938 28.8375 20.8313C28.0625 22.6688 27 24.2625 25.65 25.6125C24.3 26.9625 22.7125 28.0313 20.8875 28.8188C19.0625 29.6063 17.1 30 15 30ZM15 27.825C15.875 26.925 16.6063 25.8938 17.1938 24.7313C17.7812 23.5688 18.2625 22.1875 18.6375 20.5875H11.4C11.75 22.0875 12.2188 23.4375 12.8063 24.6375C13.3938 25.8375 14.125 26.9 15 27.825ZM11.8125 27.375C11.1875 26.425 10.65 25.4 10.2 24.3C9.75 23.2 9.375 21.9625 9.075 20.5875H3.45C4.4 22.3625 5.5 23.7563 6.75 24.7688C8 25.7813 9.6875 26.65 11.8125 27.375ZM18.225 27.3375C20.025 26.7625 21.6438 25.9 23.0813 24.75C24.5188 23.6 25.675 22.2125 26.55 20.5875H20.9625C20.6375 21.9375 20.2563 23.1625 19.8188 24.2625C19.3813 25.3625 18.85 26.3875 18.225 27.3375ZM2.7 18.3375H8.6625C8.5875 17.6625 8.54375 17.0563 8.53125 16.5188C8.51875 15.9813 8.5125 15.45 8.5125 14.925C8.5125 14.3 8.525 13.7438 8.55 13.2563C8.575 12.7688 8.625 12.225 8.7 11.625H2.7C2.525 12.225 2.40625 12.7625 2.34375 13.2375C2.28125 13.7125 2.25 14.275 2.25 14.925C2.25 15.575 2.28125 16.1562 2.34375 16.6688C2.40625 17.1813 2.525 17.7375 2.7 18.3375ZM10.9875 18.3375H19.05C19.15 17.5625 19.2125 16.9313 19.2375 16.4438C19.2625 15.9563 19.275 15.45 19.275 14.925C19.275 14.425 19.2625 13.9438 19.2375 13.4813C19.2125 13.0188 19.15 12.4 19.05 11.625H10.9875C10.8875 12.4 10.825 13.0188 10.8 13.4813C10.775 13.9438 10.7625 14.425 10.7625 14.925C10.7625 15.45 10.775 15.9563 10.8 16.4438C10.825 16.9313 10.8875 17.5625 10.9875 18.3375ZM21.3 18.3375H27.3C27.475 17.7375 27.5938 17.1813 27.6563 16.6688C27.7188 16.1562 27.75 15.575 27.75 14.925C27.75 14.275 27.7188 13.7125 27.6563 13.2375C27.5938 12.7625 27.475 12.225 27.3 11.625H21.3375C21.4125 12.5 21.4625 13.1688 21.4875 13.6313C21.5125 14.0938 21.525 14.525 21.525 14.925C21.525 15.475 21.5063 15.9938 21.4688 16.4813C21.4313 16.9688 21.375 17.5875 21.3 18.3375ZM20.925 9.375H26.55C25.725 7.65 24.5938 6.2125 23.1562 5.0625C21.7188 3.9125 20.0625 3.1 18.1875 2.625C18.8125 3.55 19.3438 4.55 19.7812 5.625C20.2188 6.7 20.6 7.95 20.925 9.375ZM11.4 9.375H18.675C18.4 8.05 17.9375 6.76875 17.2875 5.53125C16.6375 4.29375 15.875 3.2 15 2.25C14.2 2.925 13.525 3.8125 12.975 4.9125C12.425 6.0125 11.9 7.5 11.4 9.375ZM3.45 9.375H9.1125C9.3875 8.025 9.7375 6.81875 10.1625 5.75625C10.5875 4.69375 11.125 3.6625 11.775 2.6625C9.9 3.1375 8.2625 3.9375 6.8625 5.0625C5.4625 6.1875 4.325 7.625 3.45 9.375Z" fill="#CCCCCE"/>
</svg>
