<svg width="48" height="48" viewBox="0 0 48 48" fill="none" xmlns="http://www.w3.org/2000/svg">
<path d="M10.05 42C8.38333 42 6.96666 41.4167 5.8 40.25C4.63333 39.0833 4.05 37.6667 4.05 36C4.05 34.3333 4.63333 32.9167 5.8 31.75C6.96666 30.5833 8.38333 30 10.05 30H38.05C39.7167 30 41.1333 30.5833 42.3 31.75C43.4667 32.9167 44.05 34.3333 44.05 36C44.05 37.6667 43.4667 39.0833 42.3 40.25C41.1333 41.4167 39.7167 42 38.05 42H10.05ZM10.05 39H38.05C38.9 39 39.6125 38.7125 40.1875 38.1375C40.7625 37.5625 41.05 36.85 41.05 36C41.05 35.15 40.7625 34.4375 40.1875 33.8625C39.6125 33.2875 38.9 33 38.05 33H10.05C9.2 33 8.4875 33.2875 7.9125 33.8625C7.3375 34.4375 7.05 35.15 7.05 36C7.05 36.85 7.3375 37.5625 7.9125 38.1375C8.4875 38.7125 9.2 39 10.05 39ZM19.55 26C19.125 26 18.7687 25.8563 18.4812 25.5688C18.1937 25.2812 18.05 24.925 18.05 24.5V7.5C18.05 7.075 18.1937 6.71875 18.4812 6.43125C18.7687 6.14375 19.125 6 19.55 6H36.55C36.975 6 37.3312 6.14375 37.6188 6.43125C37.9062 6.71875 38.05 7.075 38.05 7.5V24.5C38.05 24.925 37.9062 25.2812 37.6188 25.5688C37.3312 25.8563 36.975 26 36.55 26H19.55ZM21.05 23H35.05V9H21.05V23ZM3.95 21.5V18.5H15V21.5H3.95ZM24 15.5H32.1V12.5H24V15.5ZM8.05 15.5H15.4V12.5H8.05V15.5Z" fill="#95C047"/>
</svg>
