<svg width="48" height="48" viewBox="0 0 48 48" fill="none" xmlns="http://www.w3.org/2000/svg">
<path d="M32 3.93994H16C8 3.93994 4 7.93994 4 15.9399V25.9399C4 35.9399 8 37.9399 16 37.9399H17C17.56 37.9399 18.28 38.2999 18.6 38.7399L21.6 42.7399C22.92 44.4999 25.08 44.4999 26.4 42.7399L29.4 38.7399C29.78 38.2399 30.38 37.9399 31 37.9399H32C40 37.9399 44 33.9399 44 25.9399V15.9399C44 7.93994 40 3.93994 32 3.93994ZM17.06 24.3399C17.64 24.9199 17.64 25.8799 17.06 26.4599C16.76 26.7599 16.38 26.8999 16 26.8999C15.62 26.8999 15.24 26.7599 14.94 26.4599L10.94 22.4599C10.36 21.8799 10.36 20.9199 10.94 20.3399L14.94 16.3399C15.52 15.7599 16.48 15.7599 17.06 16.3399C17.64 16.9199 17.64 17.8799 17.06 18.4599L14.12 21.3999L17.06 24.3399ZM27.38 17.3199L23.38 26.6599C23.14 27.2199 22.58 27.5599 22 27.5599C21.8 27.5599 21.6 27.5199 21.4 27.4399C20.64 27.1199 20.28 26.2399 20.62 25.4599L24.62 16.1199C24.94 15.3599 25.82 14.9999 26.6 15.3399C27.36 15.6799 27.7 16.5599 27.38 17.3199ZM37.06 22.4599L33.06 26.4599C32.76 26.7599 32.38 26.8999 32 26.8999C31.62 26.8999 31.24 26.7599 30.94 26.4599C30.36 25.8799 30.36 24.9199 30.94 24.3399L33.88 21.3999L30.94 18.4599C30.36 17.8799 30.36 16.9199 30.94 16.3399C31.52 15.7599 32.48 15.7599 33.06 16.3399L37.06 20.3399C37.64 20.9199 37.64 21.8799 37.06 22.4599Z" fill="#95C047"/>
</svg>
