<svg width="48" height="48" viewBox="0 0 48 48" fill="none" xmlns="http://www.w3.org/2000/svg">
<path d="M38.28 15.44C38.86 16.94 40.3 18 42 18C44.2 18 46 16.2 46 14C46 11.8 44.2 10 42 10C40.3 10 38.86 11.06 38.28 12.56C38.18 12.54 38.1 12.5 38 12.5H30V11C30 9.36 28.64 8 27 8H21C19.36 8 18 9.36 18 11V12.5H10C9.9 12.5 9.82 12.54 9.72 12.56C9.14 11.06 7.7 10 6 10C3.8 10 2 11.8 2 14C2 16.2 3.8 18 6 18C7.7 18 9.14 16.94 9.72 15.44C9.82 15.46 9.9 15.5 10 15.5H15.14C11.04 18.54 8.5 23.58 8.5 29C8.5 29.34 8.52 29.66 8.56 30H8C6.34 30 5 31.34 5 33V37C5 38.66 6.34 40 8 40H12C12.44 40 12.84 39.9 13.22 39.72C14.26 39.28 15 38.22 15 37V33C15 31.34 13.66 30 12 30H11.54C11.54 29.94 11.56 29.88 11.56 29.82C11.52 29.54 11.52 29.28 11.52 29C11.52 24.06 14.06 19.54 18.04 17.2C18.12 18.74 19.42 20 21 20H27C28.58 20 29.88 18.74 29.98 17.2C33.96 19.54 36.5 24.08 36.5 29C36.5 29.28 36.48 29.54 36.46 29.82C36.46 29.88 36.48 29.94 36.48 30H36C34.34 30 33 31.34 33 33V37C33 38.22 33.74 39.28 34.78 39.72C35.16 39.9 35.56 40 36 40H40C41.66 40 43 38.66 43 37V33C43 31.34 41.66 30 40 30H39.44C39.48 29.66 39.5 29.34 39.5 29C39.5 23.58 36.96 18.54 32.86 15.5H38C38.1 15.5 38.18 15.46 38.28 15.44Z" fill="#95C047"/>
</svg>
